<?xml version="1.0" encoding="UTF-8"?>
<svg version="1.1" xmlns="http://www.w3.org/2000/svg" width="248" height="203">
<path d="M0 0 C81.84 0 163.68 0 248 0 C248 66.99 248 133.98 248 203 C166.16 203 84.32 203 0 203 C0 136.01 0 69.02 0 0 Z " fill="#EAE7DE" transform="translate(0,0)"/>
<path d="M0 0 C2.97 0 5.94 0 9 0 C9 5.28 9 10.56 9 16 C12.96 16 16.92 16 21 16 C21 16.33 21 16.66 21 17 C17.04 17 13.08 17 9 17 C9.02094727 17.94206299 9.04189453 18.88412598 9.06347656 19.85473633 C9.13227489 23.40155114 9.18209814 26.94764135 9.21972656 30.49487305 C9.23965311 32.02037859 9.26680485 33.54580968 9.30175781 35.07104492 C9.55303238 46.33036268 9.04362955 56.21212089 1.75 65.375 C-3.66293002 71.03133801 -10.57764325 75.7631802 -18.59375 76.11328125 C-21.06657338 76.12370045 -23.52890191 76.08790468 -26 76 C-26 75.67 -26 75.34 -26 75 C-25.20335938 74.90203125 -24.40671875 74.8040625 -23.5859375 74.703125 C-15.00645234 73.64262194 -15.00645234 73.64262194 -8 69 C-3.61358797 61.68931328 -0.94024582 55.20586156 -0.79467773 46.65893555 C-0.77473251 45.6182341 -0.75478729 44.57753265 -0.73423767 43.5052948 C-0.71752518 42.3936647 -0.70081268 41.28203461 -0.68359375 40.13671875 C-0.66281265 38.98959915 -0.64203156 37.84247955 -0.62062073 36.66059875 C-0.55533381 33.00295902 -0.49633714 29.34524862 -0.4375 25.6875 C-0.39429496 23.20507087 -0.35068003 20.72264884 -0.30664062 18.24023438 C-0.19967378 12.16023055 -0.09786886 6.08015671 0 0 Z " fill="#0F0F0E" transform="translate(124,61)"/>
<path d="M0 0 C0.66 0.33 1.32 0.66 2 1 C1.814375 1.639375 1.62875 2.27875 1.4375 2.9375 C1.293125 3.618125 1.14875 4.29875 1 5 C1.33 5.33 1.66 5.66 2 6 C2.1875 8.4375 2.1875 8.4375 2 11 C1.34 11.66 0.68 12.32 0 13 C-4.55555556 12.44444444 -4.55555556 12.44444444 -6 11 C-5.83460061 6.61691616 -5.67528435 4.64234365 -2.4375 1.5625 C-1.633125 1.046875 -0.82875 0.53125 0 0 Z " fill="#0C0C0C" transform="translate(130,43)"/>
<path d="M0 0 C0.66 0.33 1.32 0.66 2 1 C2 2.32 2 3.64 2 5 C0.02 5 -1.96 5 -4 5 C-3.67 3.68 -3.34 2.36 -3 1 C-2.34 1 -1.68 1 -1 1 C-0.67 0.67 -0.34 0.34 0 0 Z " fill="#AAA8A2" transform="translate(113,166)"/>
</svg>
