<?xml version="1.0" standalone="no"?>
<!DOCTYPE svg PUBLIC "-//W3C//DTD SVG 20010904//EN"
 "http://www.w3.org/TR/2001/REC-SVG-20010904/DTD/svg10.dtd">
<svg version="1.0" xmlns="http://www.w3.org/2000/svg"
 width="736.000000pt" height="736.000000pt" viewBox="0 0 736.000000 736.000000"
 preserveAspectRatio="xMidYMid meet">

<g transform="translate(0.000000,736.000000) scale(0.100000,-0.100000)"
fill="#000000" stroke="none">
<path d="M2560 5140 l0 -190 435 0 435 0 -2 -812 -3 -813 -32 -62 c-84 -160
-312 -331 -607 -454 -55 -24 -105 -46 -109 -49 -5 -4 44 -89 108 -188 l116
-181 77 35 c305 139 531 282 677 429 86 85 108 114 148 195 86 171 82 109 82
1260 l0 1015 -662 3 -663 2 0 -190z"/>
<path d="M4308 4233 l-3 -1098 -23 -80 c-80 -282 -290 -529 -627 -736 -38 -24
-151 -85 -249 -135 l-179 -91 64 -36 c246 -135 364 -197 376 -197 44 0 369
187 514 297 303 228 483 496 562 838 21 88 21 115 24 1213 l4 1122 -230 0
-230 0 -3 -1097z"/>
</g>
</svg>
